<svg class="svg-icon" style="width: 1em; height: 1em;vertical-align: middle;fill: currentColor;overflow: hidden;" viewBox="0 0 1024 1024" version="1.1" xmlns="http://www.w3.org/2000/svg"><path d="M956.416 802.816L581.632 159.744c-17.408-30.72-41.984-47.104-69.632-47.104-26.624 0-52.224 16.384-69.632 47.104L66.56 802.816c-17.408 29.696-19.456 59.392-6.144 82.944 13.312 23.552 39.936 35.84 74.752 35.84h753.664c34.816 0 61.44-13.312 74.752-35.84 13.312-23.552 10.24-53.248-7.168-82.944z m-28.672 62.464c-6.144 10.24-19.456 15.36-38.912 15.36H135.168c-19.456 0-33.792-6.144-38.912-15.36-6.144-10.24-4.096-25.6 6.144-41.984l376.832-643.072c10.24-17.408 22.528-26.624 33.792-26.624s24.576 10.24 33.792 26.624L921.6 823.296c9.216 16.384 12.288 31.744 6.144 41.984zM542.72 716.8c0 17.408-13.312 30.72-30.72 30.72s-30.72-13.312-30.72-30.72 13.312-30.72 30.72-30.72 30.72 13.312 30.72 30.72z m0-296.96v194.56c0 17.408-13.312 30.72-30.72 30.72s-30.72-13.312-30.72-30.72V419.84c0-17.408 13.312-30.72 30.72-30.72s30.72 13.312 30.72 30.72z"  /></svg>